<svg xmlns="http://www.w3.org/2000/svg" width="512" height="512" style="shape-rendering:geometricPrecision;text-rendering:geometricPrecision;image-rendering:optimizeQuality;fill-rule:evenodd;clip-rule:evenodd"><path style="opacity:.991" fill="#fefffe" d="M245.5-.5h20c19.198 5.7 31.031 18.367 35.5 38l1 165c.833 3.5 3 5.667 6.5 6.5l165 1c19.633 4.469 32.3 16.302 38 35.5v20c-5.7 19.198-18.367 31.031-38 35.5l-165 1c-3.5.833-5.667 3-6.5 6.5l-1 165c-4.469 19.633-16.302 32.3-35.5 38h-20c-19.198-5.7-31.031-18.367-35.5-38l-1-165c-.833-3.5-3-5.667-6.5-6.5l-165-1c-19.633-4.469-32.3-16.302-38-35.5v-20c5.7-19.198 18.367-31.031 38-35.5l165-1c3.5-.833 5.667-3 6.5-6.5l1-165c4.469-19.633 16.302-32.3 35.5-38z"/></svg>