<svg xmlns="http://www.w3.org/2000/svg" width="512" height="512" style="shape-rendering:geometricPrecision;text-rendering:geometricPrecision;image-rendering:optimizeQuality;fill-rule:evenodd;clip-rule:evenodd"><path style="opacity:.983" d="M417.5-.5h15c12.038 2.185 22.705 7.351 32 15.5A966.26 966.26 0 0 1 501 52.5c4.965 7.09 8.465 14.758 10.5 23v22c-2.449 8.568-6.282 16.568-11.5 24a2643.014 2643.014 0 0 1-43.5 43A17287.468 17287.468 0 0 0 346.5 54l43-43c8.497-6.104 17.831-9.937 28-11.5z"/><path style="opacity:.99" d="M16.5 511.5h-11a25.645 25.645 0 0 1-6-6v-11c10.808-41.895 21.641-83.895 32.5-126L314.5 86c1-.667 2-.667 3 0L425 193.5c.667 1 .667 2 0 3L142.5 479c-42.105 10.859-84.106 21.692-126 32.5z"/></svg>