<svg xmlns="http://www.w3.org/2000/svg" width="512" height="512" style="shape-rendering:geometricPrecision;text-rendering:geometricPrecision;image-rendering:optimizeQuality;fill-rule:evenodd;clip-rule:evenodd"><path style="opacity:.976" d="M245.5 47.5c29.66-2.935 48.826 9.731 57.5 38 3.421 29.68-9.079 48.846-37.5 57.5-29.68 3.421-48.846-9.079-57.5-37.5-3.301-29.765 9.199-49.098 37.5-58zM245.5 207.5c29.66-2.936 48.826 9.731 57.5 38 3.421 29.68-9.079 48.846-37.5 57.5-29.68 3.421-48.846-9.079-57.5-37.5-3.301-29.765 9.199-49.098 37.5-58zM245.5 367.5c29.66-2.936 48.826 9.731 57.5 38 3.421 29.68-9.079 48.846-37.5 57.5-29.68 3.421-48.846-9.079-57.5-37.5-3.301-29.765 9.199-49.098 37.5-58z"/></svg>